<svg width="122" height="93" viewBox="0 0 122 93" fill="none" xmlns="http://www.w3.org/2000/svg">
<path d="M6.512 88.176C5.70133 88.176 4.944 88.032 4.24 87.744C3.536 87.4453 2.91733 87.0347 2.384 86.512C1.85067 85.9787 1.43467 85.3653 1.136 84.672C0.848 83.968 0.704 83.2107 0.704 82.4C0.704 81.5893 0.848 80.8373 1.136 80.144C1.43467 79.44 1.85067 78.8267 2.384 78.304C2.91733 77.7707 3.536 77.36 4.24 77.072C4.944 76.7733 5.70133 76.624 6.512 76.624C7.09867 76.624 7.65867 76.6987 8.192 76.848C8.736 76.9867 9.23733 77.1947 9.696 77.472C10.1653 77.7387 10.5813 78.0693 10.944 78.464L10.128 79.328C9.69067 78.8267 9.152 78.4427 8.512 78.176C7.872 77.8987 7.20533 77.76 6.512 77.76C5.86133 77.76 5.25867 77.8773 4.704 78.112C4.14933 78.3467 3.664 78.6773 3.248 79.104C2.84267 79.52 2.52267 80.0107 2.288 80.576C2.064 81.1307 1.952 81.7387 1.952 82.4C1.952 83.0507 2.064 83.6587 2.288 84.224C2.52267 84.7893 2.848 85.2853 3.264 85.712C3.68 86.128 4.16533 86.4533 4.72 86.688C5.28533 86.9227 5.89333 87.04 6.544 87.04C7.23733 87.04 7.89867 86.9067 8.528 86.64C9.15733 86.3627 9.68533 85.984 10.112 85.504L10.912 86.336C10.5387 86.72 10.1173 87.0507 9.648 87.328C9.18933 87.6053 8.69333 87.8187 8.16 87.968C7.62667 88.1067 7.07733 88.176 6.512 88.176ZM12.5549 88V76.8L13.7389 76.528V80.928C14.3682 80.192 15.2109 79.824 16.2669 79.824C16.8749 79.824 17.4082 79.9573 17.8669 80.224C18.3362 80.48 18.6989 80.8427 18.9549 81.312C19.2215 81.7707 19.3549 82.3093 19.3549 82.928V88H18.1869V83.168C18.1869 82.4533 17.9842 81.8933 17.5789 81.488C17.1842 81.072 16.6402 80.864 15.9469 80.864C15.4669 80.864 15.0402 80.9707 14.6669 81.184C14.2935 81.3973 13.9842 81.7013 13.7389 82.096V88H12.5549ZM25.0641 88.16C24.3068 88.16 23.6135 87.9787 22.9841 87.616C22.3655 87.2427 21.8748 86.7413 21.5121 86.112C21.1495 85.4827 20.9681 84.7787 20.9681 84C20.9681 83.2213 21.1495 82.5173 21.5121 81.888C21.8748 81.2587 22.3655 80.7627 22.9841 80.4C23.6135 80.0267 24.3068 79.84 25.0641 79.84C25.8321 79.84 26.5255 80.0267 27.1441 80.4C27.7628 80.7627 28.2535 81.2587 28.6161 81.888C28.9788 82.5173 29.1601 83.2213 29.1601 84C29.1601 84.7787 28.9788 85.4827 28.6161 86.112C28.2535 86.7413 27.7628 87.2427 27.1441 87.616C26.5255 87.9787 25.8321 88.16 25.0641 88.16ZM25.0641 87.104C25.6081 87.104 26.0988 86.9653 26.5361 86.688C26.9841 86.4107 27.3361 86.0373 27.5921 85.568C27.8588 85.0987 27.9921 84.576 27.9921 84C27.9921 83.4133 27.8588 82.8907 27.5921 82.432C27.3361 81.9627 26.9841 81.5893 26.5361 81.312C26.0988 81.0347 25.6081 80.896 25.0641 80.896C24.5201 80.896 24.0241 81.0347 23.5761 81.312C23.1388 81.5893 22.7868 81.9627 22.5201 82.432C22.2641 82.8907 22.1361 83.4133 22.1361 84C22.1361 84.576 22.2641 85.0987 22.5201 85.568C22.7868 86.0373 23.1388 86.4107 23.5761 86.688C24.0241 86.9653 24.5201 87.104 25.0641 87.104ZM34.5329 88.16C33.7755 88.16 33.0822 87.9787 32.4529 87.616C31.8342 87.2427 31.3435 86.7413 30.9809 86.112C30.6182 85.4827 30.4369 84.7787 30.4369 84C30.4369 83.2213 30.6182 82.5173 30.9809 81.888C31.3435 81.2587 31.8342 80.7627 32.4529 80.4C33.0822 80.0267 33.7755 79.84 34.5329 79.84C35.3009 79.84 35.9942 80.0267 36.6129 80.4C37.2315 80.7627 37.7222 81.2587 38.0849 81.888C38.4475 82.5173 38.6289 83.2213 38.6289 84C38.6289 84.7787 38.4475 85.4827 38.0849 86.112C37.7222 86.7413 37.2315 87.2427 36.6129 87.616C35.9942 87.9787 35.3009 88.16 34.5329 88.16ZM34.5329 87.104C35.0769 87.104 35.5675 86.9653 36.0049 86.688C36.4529 86.4107 36.8049 86.0373 37.0609 85.568C37.3275 85.0987 37.4609 84.576 37.4609 84C37.4609 83.4133 37.3275 82.8907 37.0609 82.432C36.8049 81.9627 36.4529 81.5893 36.0049 81.312C35.5675 81.0347 35.0769 80.896 34.5329 80.896C33.9889 80.896 33.4929 81.0347 33.0449 81.312C32.6075 81.5893 32.2555 81.9627 31.9889 82.432C31.7329 82.8907 31.6049 83.4133 31.6049 84C31.6049 84.576 31.7329 85.0987 31.9889 85.568C32.2555 86.0373 32.6075 86.4107 33.0449 86.688C33.4929 86.9653 33.9889 87.104 34.5329 87.104ZM42.8336 88.16C42.1723 88.16 41.5483 88.0533 40.9616 87.84C40.3856 87.616 39.8843 87.3067 39.4576 86.912L40.1776 86.144C40.551 86.4853 40.9616 86.752 41.4096 86.944C41.8576 87.1253 42.3163 87.216 42.7856 87.216C43.4256 87.216 43.9483 87.0827 44.3536 86.816C44.759 86.5493 44.9616 86.2027 44.9616 85.776C44.9616 85.424 44.839 85.152 44.5936 84.96C44.359 84.7573 43.9856 84.6187 43.4736 84.544L42.0816 84.352C41.2816 84.2347 40.6843 83.9947 40.2896 83.632C39.9056 83.2693 39.7136 82.7787 39.7136 82.16C39.7136 81.712 39.8416 81.312 40.0976 80.96C40.3536 80.608 40.7056 80.3307 41.1536 80.128C41.6123 79.9253 42.135 79.824 42.7216 79.824C43.3083 79.824 43.8576 79.9093 44.3696 80.08C44.8816 80.2507 45.383 80.5173 45.8736 80.88L45.2496 81.68C44.8016 81.3707 44.3643 81.1467 43.9376 81.008C43.5216 80.8587 43.095 80.784 42.6576 80.784C42.103 80.784 41.655 80.9067 41.3136 81.152C40.9723 81.3973 40.8016 81.7173 40.8016 82.112C40.8016 82.4747 40.919 82.752 41.1536 82.944C41.3883 83.1253 41.767 83.2533 42.2896 83.328L43.6816 83.52C44.4816 83.6267 45.079 83.8613 45.4736 84.224C45.879 84.5867 46.0816 85.0827 46.0816 85.712C46.0816 86.1707 45.9376 86.5867 45.6496 86.96C45.3616 87.3333 44.9723 87.6267 44.4816 87.84C44.0016 88.0533 43.4523 88.16 42.8336 88.16ZM51.2524 88.144C50.4844 88.144 49.7857 87.9627 49.1564 87.6C48.5377 87.2267 48.0417 86.7253 47.6684 86.096C47.3057 85.4667 47.1244 84.7627 47.1244 83.984C47.1244 83.216 47.3004 82.5227 47.6524 81.904C48.0044 81.2747 48.479 80.7787 49.0764 80.416C49.6737 80.0427 50.3404 79.856 51.0764 79.856C51.791 79.856 52.431 80.0427 52.9964 80.416C53.5724 80.7787 54.0257 81.2747 54.3564 81.904C54.6977 82.5227 54.8684 83.216 54.8684 83.984V84.352H48.2924C48.3564 84.8747 48.5217 85.344 48.7884 85.76C49.0657 86.176 49.423 86.5067 49.8604 86.752C50.2977 86.9867 50.7777 87.104 51.3004 87.104C51.7164 87.104 52.1217 87.04 52.5164 86.912C52.911 86.784 53.2417 86.6027 53.5084 86.368L54.2444 87.152C53.7964 87.4827 53.327 87.7333 52.8364 87.904C52.3564 88.064 51.8284 88.144 51.2524 88.144ZM48.3244 83.408H53.6844C53.6204 82.928 53.4604 82.5013 53.2044 82.128C52.959 81.744 52.6497 81.4453 52.2764 81.232C51.903 81.008 51.4924 80.896 51.0444 80.896C50.5857 80.896 50.1644 81.0027 49.7804 81.216C49.3964 81.4293 49.0764 81.728 48.8204 82.112C48.5644 82.4853 48.399 82.9173 48.3244 83.408ZM62.4891 88.144C61.9025 88.144 61.3851 88.0427 60.9371 87.84C60.4998 87.6373 60.1531 87.3547 59.8971 86.992C59.6518 86.6293 59.5291 86.208 59.5291 85.728C59.5291 84.9707 59.8171 84.3733 60.3931 83.936C60.9691 83.4987 61.7478 83.28 62.7291 83.28C63.5931 83.28 64.3771 83.4613 65.0811 83.824V82.768C65.0811 82.128 64.8998 81.648 64.5371 81.328C64.1745 80.9973 63.6465 80.832 62.9531 80.832C62.5585 80.832 62.1585 80.8907 61.7531 81.008C61.3585 81.1147 60.9211 81.2907 60.4411 81.536L59.9931 80.624C60.5691 80.3467 61.1025 80.144 61.5931 80.016C62.0838 79.888 62.5745 79.824 63.0651 79.824C64.0785 79.824 64.8571 80.064 65.4011 80.544C65.9558 81.024 66.2331 81.712 66.2331 82.608V88H65.0811V87.216C64.7185 87.5253 64.3185 87.76 63.8811 87.92C63.4545 88.0693 62.9905 88.144 62.4891 88.144ZM60.6651 85.696C60.6651 86.144 60.8518 86.512 61.2251 86.8C61.6091 87.0773 62.0998 87.216 62.6971 87.216C63.1771 87.216 63.6145 87.1413 64.0091 86.992C64.4038 86.8427 64.7611 86.608 65.0811 86.288V84.784C64.7505 84.56 64.3985 84.4 64.0251 84.304C63.6518 84.1973 63.2305 84.144 62.7611 84.144C62.1211 84.144 61.6091 84.288 61.2251 84.576C60.8518 84.8533 60.6651 85.2267 60.6651 85.696ZM75.2966 88L70.7046 76.8H72.0326L76.0806 86.848L80.1926 76.8H81.4406L76.7846 88H75.2966ZM85.2211 88.144C84.4531 88.144 83.7545 87.9627 83.1251 87.6C82.5065 87.2267 82.0105 86.7253 81.6371 86.096C81.2745 85.4667 81.0931 84.7627 81.0931 83.984C81.0931 83.216 81.2691 82.5227 81.6211 81.904C81.9731 81.2747 82.4478 80.7787 83.0451 80.416C83.6425 80.0427 84.3091 79.856 85.0451 79.856C85.7598 79.856 86.3998 80.0427 86.9651 80.416C87.5411 80.7787 87.9945 81.2747 88.3251 81.904C88.6665 82.5227 88.8371 83.216 88.8371 83.984V84.352H82.2611C82.3251 84.8747 82.4905 85.344 82.7571 85.76C83.0345 86.176 83.3918 86.5067 83.8291 86.752C84.2665 86.9867 84.7465 87.104 85.2691 87.104C85.6851 87.104 86.0905 87.04 86.4851 86.912C86.8798 86.784 87.2105 86.6027 87.4771 86.368L88.2131 87.152C87.7651 87.4827 87.2958 87.7333 86.8051 87.904C86.3251 88.064 85.7971 88.144 85.2211 88.144ZM82.2931 83.408H87.6531C87.5891 82.928 87.4291 82.5013 87.1731 82.128C86.9278 81.744 86.6185 81.4453 86.2451 81.232C85.8718 81.008 85.4611 80.896 85.0131 80.896C84.5545 80.896 84.1331 81.0027 83.7491 81.216C83.3651 81.4293 83.0451 81.728 82.7891 82.112C82.5331 82.4853 82.3678 82.9173 82.2931 83.408ZM90.4924 88V76.8L91.6764 76.528V80.928C92.3057 80.192 93.1484 79.824 94.2044 79.824C94.8124 79.824 95.3457 79.9573 95.8044 80.224C96.2737 80.48 96.6364 80.8427 96.8924 81.312C97.159 81.7707 97.2924 82.3093 97.2924 82.928V88H96.1244V83.168C96.1244 82.4533 95.9217 81.8933 95.5164 81.488C95.1217 81.072 94.5777 80.864 93.8844 80.864C93.4044 80.864 92.9777 80.9707 92.6044 81.184C92.231 81.3973 91.9217 81.7013 91.6764 82.096V88H90.4924ZM99.2736 88V79.984H100.458V88H99.2736ZM99.8656 78.448C99.6523 78.448 99.4656 78.368 99.3056 78.208C99.1456 78.048 99.0656 77.8613 99.0656 77.648C99.0656 77.424 99.1456 77.2373 99.3056 77.088C99.4656 76.928 99.6523 76.848 99.8656 76.848C100.09 76.848 100.276 76.928 100.426 77.088C100.586 77.2373 100.666 77.424 100.666 77.648C100.666 77.8613 100.586 78.048 100.426 78.208C100.276 78.368 100.09 78.448 99.8656 78.448ZM106.189 88.144C105.431 88.144 104.743 87.9627 104.125 87.6C103.506 87.2267 103.015 86.7253 102.653 86.096C102.29 85.4667 102.109 84.7627 102.109 83.984C102.109 83.2053 102.29 82.5067 102.653 81.888C103.015 81.2587 103.506 80.7573 104.125 80.384C104.743 80.0107 105.431 79.824 106.189 79.824C106.775 79.824 107.341 79.936 107.885 80.16C108.429 80.3733 108.909 80.6827 109.325 81.088L108.573 81.952C108.253 81.6107 107.885 81.3547 107.469 81.184C107.063 81.0027 106.642 80.912 106.205 80.912C105.661 80.912 105.165 81.0507 104.717 81.328C104.279 81.5947 103.927 81.9627 103.661 82.432C103.405 82.8907 103.277 83.408 103.277 83.984C103.277 84.56 103.405 85.0827 103.661 85.552C103.927 86.0213 104.285 86.3947 104.733 86.672C105.181 86.9387 105.677 87.072 106.221 87.072C106.658 87.072 107.069 86.9867 107.453 86.816C107.847 86.6453 108.215 86.3947 108.557 86.064L109.293 86.864C108.866 87.2693 108.386 87.584 107.853 87.808C107.319 88.032 106.765 88.144 106.189 88.144ZM110.68 88V76.8L111.864 76.528V88H110.68ZM117.643 88.144C116.875 88.144 116.176 87.9627 115.547 87.6C114.928 87.2267 114.432 86.7253 114.059 86.096C113.696 85.4667 113.515 84.7627 113.515 83.984C113.515 83.216 113.691 82.5227 114.043 81.904C114.395 81.2747 114.87 80.7787 115.467 80.416C116.064 80.0427 116.731 79.856 117.467 79.856C118.182 79.856 118.822 80.0427 119.387 80.416C119.963 80.7787 120.416 81.2747 120.747 81.904C121.088 82.5227 121.259 83.216 121.259 83.984V84.352H114.683C114.747 84.8747 114.912 85.344 115.179 85.76C115.456 86.176 115.814 86.5067 116.251 86.752C116.688 86.9867 117.168 87.104 117.691 87.104C118.107 87.104 118.512 87.04 118.907 86.912C119.302 86.784 119.632 86.6027 119.899 86.368L120.635 87.152C120.187 87.4827 119.718 87.7333 119.227 87.904C118.747 88.064 118.219 88.144 117.643 88.144ZM114.715 83.408H120.075C120.011 82.928 119.851 82.5013 119.595 82.128C119.35 81.744 119.04 81.4453 118.667 81.232C118.294 81.008 117.883 80.896 117.435 80.896C116.976 80.896 116.555 81.0027 116.171 81.216C115.787 81.4293 115.467 81.728 115.211 82.112C114.955 82.4853 114.79 82.9173 114.715 83.408Z" fill="white"/>
<circle cx="60.5" cy="35.5" r="30.5" fill="white" stroke="#282828" stroke-width="10"/>
<path d="M56.078 43V41.46L62.326 34.816C62.7513 34.376 63.0813 33.98 63.316 33.628C63.5507 33.276 63.712 32.946 63.8 32.638C63.9027 32.3153 63.954 31.978 63.954 31.626C63.954 30.9367 63.6753 30.3647 63.118 29.91C62.5607 29.4553 61.8567 29.228 61.006 29.228C60.302 29.228 59.642 29.3673 59.026 29.646C58.41 29.9247 57.728 30.4087 56.98 31.098L55.792 29.646C56.6133 28.8833 57.4567 28.3113 58.322 27.93C59.202 27.5487 60.1113 27.358 61.05 27.358C62.0327 27.358 62.898 27.534 63.646 27.886C64.394 28.238 64.9733 28.7293 65.384 29.36C65.8093 29.976 66.022 30.6873 66.022 31.494C66.022 32.0073 65.956 32.484 65.824 32.924C65.692 33.3493 65.4647 33.804 65.142 34.288C64.8193 34.7573 64.3647 35.3 63.778 35.916L58.762 41.196L66.33 41.174V43H56.078Z" fill="black"/>
</svg>
