<svg width="130" height="93" viewBox="0 0 130 93" fill="none" xmlns="http://www.w3.org/2000/svg">
<path d="M1.232 88V76.8H5.776C6.50133 76.8 7.12533 76.9173 7.648 77.152C8.18133 77.3867 8.592 77.7227 8.88 78.16C9.168 78.5867 9.312 79.0933 9.312 79.68C9.312 80.256 9.15733 80.7573 8.848 81.184C8.54933 81.6107 8.13333 81.936 7.6 82.16C8.272 82.3627 8.8 82.6987 9.184 83.168C9.57867 83.6373 9.776 84.1973 9.776 84.848C9.776 85.488 9.616 86.048 9.296 86.528C8.98667 86.9973 8.544 87.36 7.968 87.616C7.40267 87.872 6.736 88 5.968 88H1.232ZM2.464 81.68H5.712C6.43733 81.68 7.01333 81.5093 7.44 81.168C7.87733 80.8267 8.096 80.3627 8.096 79.776C8.096 79.1893 7.87733 78.7253 7.44 78.384C7.01333 78.0427 6.43733 77.872 5.712 77.872H2.464V81.68ZM2.464 86.928H5.872C6.68267 86.928 7.328 86.736 7.808 86.352C8.288 85.968 8.528 85.456 8.528 84.816C8.528 84.176 8.288 83.664 7.808 83.28C7.328 82.896 6.68267 82.704 5.872 82.704H2.464V86.928ZM15.0954 88.16C14.338 88.16 13.6447 87.9787 13.0154 87.616C12.3967 87.2427 11.906 86.7413 11.5434 86.112C11.1807 85.4827 10.9994 84.7787 10.9994 84C10.9994 83.2213 11.1807 82.5173 11.5434 81.888C11.906 81.2587 12.3967 80.7627 13.0154 80.4C13.6447 80.0267 14.338 79.84 15.0954 79.84C15.8634 79.84 16.5567 80.0267 17.1754 80.4C17.794 80.7627 18.2847 81.2587 18.6474 81.888C19.01 82.5173 19.1914 83.2213 19.1914 84C19.1914 84.7787 19.01 85.4827 18.6474 86.112C18.2847 86.7413 17.794 87.2427 17.1754 87.616C16.5567 87.9787 15.8634 88.16 15.0954 88.16ZM15.0954 87.104C15.6394 87.104 16.13 86.9653 16.5674 86.688C17.0154 86.4107 17.3674 86.0373 17.6234 85.568C17.89 85.0987 18.0234 84.576 18.0234 84C18.0234 83.4133 17.89 82.8907 17.6234 82.432C17.3674 81.9627 17.0154 81.5893 16.5674 81.312C16.13 81.0347 15.6394 80.896 15.0954 80.896C14.5514 80.896 14.0554 81.0347 13.6074 81.312C13.17 81.5893 12.818 81.9627 12.5514 82.432C12.2954 82.8907 12.1674 83.4133 12.1674 84C12.1674 84.576 12.2954 85.0987 12.5514 85.568C12.818 86.0373 13.17 86.4107 13.6074 86.688C14.0554 86.9653 14.5514 87.104 15.0954 87.104ZM24.5641 88.16C23.8068 88.16 23.1135 87.9787 22.4841 87.616C21.8655 87.2427 21.3748 86.7413 21.0121 86.112C20.6495 85.4827 20.4681 84.7787 20.4681 84C20.4681 83.2213 20.6495 82.5173 21.0121 81.888C21.3748 81.2587 21.8655 80.7627 22.4841 80.4C23.1135 80.0267 23.8068 79.84 24.5641 79.84C25.3321 79.84 26.0255 80.0267 26.6441 80.4C27.2628 80.7627 27.7535 81.2587 28.1161 81.888C28.4788 82.5173 28.6601 83.2213 28.6601 84C28.6601 84.7787 28.4788 85.4827 28.1161 86.112C27.7535 86.7413 27.2628 87.2427 26.6441 87.616C26.0255 87.9787 25.3321 88.16 24.5641 88.16ZM24.5641 87.104C25.1081 87.104 25.5988 86.9653 26.0361 86.688C26.4841 86.4107 26.8361 86.0373 27.0921 85.568C27.3588 85.0987 27.4921 84.576 27.4921 84C27.4921 83.4133 27.3588 82.8907 27.0921 82.432C26.8361 81.9627 26.4841 81.5893 26.0361 81.312C25.5988 81.0347 25.1081 80.896 24.5641 80.896C24.0201 80.896 23.5241 81.0347 23.0761 81.312C22.6388 81.5893 22.2868 81.9627 22.0201 82.432C21.7641 82.8907 21.6361 83.4133 21.6361 84C21.6361 84.576 21.7641 85.0987 22.0201 85.568C22.2868 86.0373 22.6388 86.4107 23.0761 86.688C23.5241 86.9653 24.0201 87.104 24.5641 87.104ZM30.3049 88V76.8L31.4889 76.528V83.6L35.6809 79.984H37.1209L32.7209 83.792L37.3289 88H35.7129L31.4889 84.16V88H30.3049ZM38.2111 88V79.984H39.3951V88H38.2111ZM38.8031 78.448C38.5898 78.448 38.4031 78.368 38.2431 78.208C38.0831 78.048 38.0031 77.8613 38.0031 77.648C38.0031 77.424 38.0831 77.2373 38.2431 77.088C38.4031 76.928 38.5898 76.848 38.8031 76.848C39.0271 76.848 39.2138 76.928 39.3631 77.088C39.5231 77.2373 39.6031 77.424 39.6031 77.648C39.6031 77.8613 39.5231 78.048 39.3631 78.208C39.2138 78.368 39.0271 78.448 38.8031 78.448ZM41.4143 88V79.984H42.5983V80.928C43.2276 80.192 44.0703 79.824 45.1263 79.824C45.7343 79.824 46.2676 79.9573 46.7263 80.224C47.1956 80.48 47.5583 80.8427 47.8143 81.312C48.0809 81.7707 48.2143 82.3093 48.2143 82.928V88H47.0463V83.168C47.0463 82.4533 46.8436 81.8933 46.4383 81.488C46.0436 81.072 45.4996 80.864 44.8063 80.864C44.3263 80.864 43.8996 80.9707 43.5263 81.184C43.1529 81.3973 42.8436 81.7013 42.5983 82.096V88H41.4143ZM54.0995 91.424C53.5448 91.424 52.9955 91.3493 52.4515 91.2C51.9075 91.0613 51.4115 90.8587 50.9635 90.592L51.4755 89.664C51.9555 89.92 52.3982 90.1067 52.8035 90.224C53.2195 90.3413 53.6355 90.4 54.0515 90.4C54.8088 90.4 55.3848 90.2187 55.7795 89.856C56.1742 89.4933 56.3715 88.96 56.3715 88.256V87.136C55.6355 87.7547 54.7875 88.064 53.8275 88.064C53.0915 88.064 52.4195 87.8827 51.8115 87.52C51.2035 87.1573 50.7182 86.6667 50.3555 86.048C50.0035 85.4187 49.8275 84.72 49.8275 83.952C49.8275 83.184 50.0035 82.4907 50.3555 81.872C50.7182 81.2427 51.2035 80.7467 51.8115 80.384C52.4195 80.0213 53.1022 79.84 53.8595 79.84C54.3182 79.84 54.7608 79.92 55.1875 80.08C55.6248 80.24 56.0248 80.4747 56.3875 80.784V79.984H57.5555V88.24C57.5555 89.264 57.2568 90.048 56.6595 90.592C56.0622 91.1467 55.2088 91.424 54.0995 91.424ZM53.9235 87.024C54.4355 87.024 54.9048 86.928 55.3315 86.736C55.7582 86.544 56.1048 86.272 56.3715 85.92V81.984C56.1048 81.6427 55.7528 81.376 55.3155 81.184C54.8888 80.992 54.4248 80.896 53.9235 80.896C53.3688 80.896 52.8675 81.0293 52.4195 81.296C51.9822 81.5627 51.6355 81.9307 51.3795 82.4C51.1235 82.8587 50.9955 83.376 50.9955 83.952C50.9955 84.528 51.1235 85.0507 51.3795 85.52C51.6462 85.9787 51.9982 86.3467 52.4355 86.624C52.8835 86.8907 53.3795 87.024 53.9235 87.024ZM66.864 88.16C65.9787 88.16 65.1307 87.984 64.32 87.632C63.5093 87.2693 62.7947 86.752 62.176 86.08L62.992 85.232C63.568 85.8507 64.1813 86.3147 64.832 86.624C65.4933 86.9333 66.1867 87.088 66.912 87.088C67.4987 87.088 68.016 86.9973 68.464 86.816C68.9227 86.624 69.28 86.3627 69.536 86.032C69.792 85.6907 69.92 85.3067 69.92 84.88C69.92 84.304 69.7173 83.8613 69.312 83.552C68.9173 83.2427 68.2613 83.0133 67.344 82.864L65.728 82.608C64.6507 82.4267 63.856 82.1067 63.344 81.648C62.832 81.1893 62.576 80.5653 62.576 79.776C62.576 79.1573 62.7413 78.6133 63.072 78.144C63.4027 77.6747 63.8613 77.312 64.448 77.056C65.0453 76.7893 65.7333 76.656 66.512 76.656C67.3013 76.656 68.0747 76.784 68.832 77.04C69.6 77.296 70.2987 77.664 70.928 78.144L70.224 79.104C68.9973 78.176 67.744 77.712 66.464 77.712C65.9307 77.712 65.4613 77.7973 65.056 77.968C64.6507 78.128 64.336 78.3573 64.112 78.656C63.888 78.944 63.776 79.2853 63.776 79.68C63.776 80.2027 63.952 80.6027 64.304 80.88C64.656 81.1573 65.2373 81.36 66.048 81.488L67.648 81.744C68.8747 81.9467 69.7653 82.2933 70.32 82.784C70.8747 83.264 71.152 83.9413 71.152 84.816C71.152 85.4667 70.9707 86.048 70.608 86.56C70.2453 87.0613 69.7387 87.456 69.088 87.744C68.448 88.0213 67.7067 88.16 66.864 88.16ZM75.6738 88.16C75.0658 88.16 74.5271 88.032 74.0578 87.776C73.5884 87.5093 73.2204 87.1467 72.9538 86.688C72.6978 86.2187 72.5698 85.6747 72.5698 85.056V79.984H73.7378V84.816C73.7378 85.5307 73.9404 86.096 74.3458 86.512C74.7511 86.9173 75.2951 87.12 75.9778 87.12C76.4578 87.12 76.8844 87.0133 77.2578 86.8C77.6418 86.576 77.9511 86.2667 78.1858 85.872V79.984H79.3698V88H78.1858V87.072C77.5564 87.7973 76.7191 88.16 75.6738 88.16ZM81.383 88V79.984H82.567V80.864C83.175 80.1707 83.959 79.824 84.919 79.824C85.4843 79.824 85.9857 79.9573 86.423 80.224C86.8603 80.48 87.2017 80.832 87.447 81.28C87.7777 80.7893 88.1723 80.4267 88.631 80.192C89.0897 79.9467 89.6123 79.824 90.199 79.824C90.7857 79.824 91.2977 79.9573 91.735 80.224C92.1723 80.48 92.5137 80.8427 92.759 81.312C93.015 81.7707 93.143 82.3093 93.143 82.928V88H91.975V83.168C91.975 82.4533 91.7883 81.8933 91.415 81.488C91.0417 81.072 90.535 80.864 89.895 80.864C89.4577 80.864 89.0577 80.976 88.695 81.2C88.3323 81.4133 88.023 81.7387 87.767 82.176C87.7883 82.2933 87.8043 82.416 87.815 82.544C87.8363 82.6613 87.847 82.7893 87.847 82.928V88H86.679V83.168C86.679 82.4533 86.4923 81.8933 86.119 81.488C85.7457 81.072 85.2443 80.864 84.615 80.864C84.1883 80.864 83.799 80.9653 83.447 81.168C83.1057 81.36 82.8123 81.648 82.567 82.032V88H81.383ZM95.133 88V79.984H96.317V80.864C96.925 80.1707 97.709 79.824 98.669 79.824C99.2343 79.824 99.7357 79.9573 100.173 80.224C100.61 80.48 100.952 80.832 101.197 81.28C101.528 80.7893 101.922 80.4267 102.381 80.192C102.84 79.9467 103.362 79.824 103.949 79.824C104.536 79.824 105.048 79.9573 105.485 80.224C105.922 80.48 106.264 80.8427 106.509 81.312C106.765 81.7707 106.893 82.3093 106.893 82.928V88H105.725V83.168C105.725 82.4533 105.538 81.8933 105.165 81.488C104.792 81.072 104.285 80.864 103.645 80.864C103.208 80.864 102.808 80.976 102.445 81.2C102.082 81.4133 101.773 81.7387 101.517 82.176C101.538 82.2933 101.554 82.416 101.565 82.544C101.586 82.6613 101.597 82.7893 101.597 82.928V88H100.429V83.168C100.429 82.4533 100.242 81.8933 99.869 81.488C99.4957 81.072 98.9943 80.864 98.365 80.864C97.9383 80.864 97.549 80.9653 97.197 81.168C96.8557 81.36 96.5623 81.648 96.317 82.032V88H95.133ZM111.411 88.144C110.824 88.144 110.307 88.0427 109.859 87.84C109.422 87.6373 109.075 87.3547 108.819 86.992C108.574 86.6293 108.451 86.208 108.451 85.728C108.451 84.9707 108.739 84.3733 109.315 83.936C109.891 83.4987 110.67 83.28 111.651 83.28C112.515 83.28 113.299 83.4613 114.003 83.824V82.768C114.003 82.128 113.822 81.648 113.459 81.328C113.096 80.9973 112.568 80.832 111.875 80.832C111.48 80.832 111.08 80.8907 110.675 81.008C110.28 81.1147 109.843 81.2907 109.363 81.536L108.915 80.624C109.491 80.3467 110.024 80.144 110.515 80.016C111.006 79.888 111.496 79.824 111.987 79.824C113 79.824 113.779 80.064 114.323 80.544C114.878 81.024 115.155 81.712 115.155 82.608V88H114.003V87.216C113.64 87.5253 113.24 87.76 112.803 87.92C112.376 88.0693 111.912 88.144 111.411 88.144ZM109.587 85.696C109.587 86.144 109.774 86.512 110.147 86.8C110.531 87.0773 111.022 87.216 111.619 87.216C112.099 87.216 112.536 87.1413 112.931 86.992C113.326 86.8427 113.683 86.608 114.003 86.288V84.784C113.672 84.56 113.32 84.4 112.947 84.304C112.574 84.1973 112.152 84.144 111.683 84.144C111.043 84.144 110.531 84.288 110.147 84.576C109.774 84.8533 109.587 85.2267 109.587 85.696ZM117.133 88V79.984H118.317V81.12C118.562 80.704 118.872 80.384 119.245 80.16C119.629 79.9253 120.066 79.808 120.557 79.808C120.834 79.808 121.085 79.8453 121.309 79.92V81.008C121.17 80.9547 121.032 80.9173 120.893 80.896C120.754 80.8747 120.616 80.864 120.477 80.864C119.986 80.864 119.554 81.008 119.181 81.296C118.818 81.5733 118.53 81.9787 118.317 82.512V88H117.133ZM123.157 91.424C123.007 91.424 122.863 91.4133 122.725 91.392C122.597 91.3813 122.49 91.3653 122.405 91.344V90.272C122.586 90.3147 122.81 90.336 123.077 90.336C123.781 90.336 124.314 89.92 124.677 89.088L125.157 87.984L121.893 79.984H123.205L125.797 86.56L128.597 79.984H129.877L125.877 89.248C125.653 89.76 125.413 90.176 125.157 90.496C124.901 90.816 124.607 91.0507 124.277 91.2C123.957 91.3493 123.583 91.424 123.157 91.424Z" fill="#969696"/>
<circle cx="64.5" cy="35.5" r="30.5" fill="#464646" stroke="#282828" stroke-width="10"/>
<path d="M66.328 43V39.084H57.594V37.346L66.064 27.6H68.506V37.236H70.376V39.084H68.506V43H66.328ZM60.19 37.236H66.328V30.174L60.19 37.236Z" fill="white"/>
</svg>
