<svg width="152" height="93" viewBox="0 0 152 93" fill="none" xmlns="http://www.w3.org/2000/svg">
<path d="M1.232 88V76.8H9.248V77.888H2.464V81.808H6.896V82.88H2.464V86.912H9.312V88H1.232ZM10.8674 88V79.984H12.0514V80.928C12.6807 80.192 13.5234 79.824 14.5794 79.824C15.1874 79.824 15.7207 79.9573 16.1794 80.224C16.6487 80.48 17.0114 80.8427 17.2674 81.312C17.534 81.7707 17.6674 82.3093 17.6674 82.928V88H16.4994V83.168C16.4994 82.4533 16.2967 81.8933 15.8914 81.488C15.4967 81.072 14.9527 80.864 14.2594 80.864C13.7794 80.864 13.3527 80.9707 12.9794 81.184C12.606 81.3973 12.2967 81.7013 12.0514 82.096V88H10.8674ZM22.5663 88.16C21.8729 88.16 21.3396 87.9947 20.9663 87.664C20.5929 87.3333 20.4062 86.8533 20.4062 86.224V80.992H18.6783V79.984H20.4062V77.952L21.5743 77.648V79.984H23.9903V80.992H21.5743V85.92C21.5743 86.3467 21.6703 86.656 21.8623 86.848C22.0543 87.0293 22.3689 87.12 22.8063 87.12C23.0303 87.12 23.2276 87.104 23.3983 87.072C23.5796 87.04 23.7716 86.9867 23.9743 86.912V87.952C23.7716 88.0267 23.5423 88.08 23.2863 88.112C23.0409 88.144 22.8009 88.16 22.5663 88.16ZM28.8618 88.144C28.0938 88.144 27.3951 87.9627 26.7658 87.6C26.1471 87.2267 25.6511 86.7253 25.2778 86.096C24.9151 85.4667 24.7338 84.7627 24.7338 83.984C24.7338 83.216 24.9098 82.5227 25.2618 81.904C25.6138 81.2747 26.0884 80.7787 26.6858 80.416C27.2831 80.0427 27.9498 79.856 28.6858 79.856C29.4004 79.856 30.0404 80.0427 30.6058 80.416C31.1818 80.7787 31.6351 81.2747 31.9658 81.904C32.3071 82.5227 32.4778 83.216 32.4778 83.984V84.352H25.9018C25.9658 84.8747 26.1311 85.344 26.3978 85.76C26.6751 86.176 27.0324 86.5067 27.4698 86.752C27.9071 86.9867 28.3871 87.104 28.9098 87.104C29.3258 87.104 29.7311 87.04 30.1258 86.912C30.5204 86.784 30.8511 86.6027 31.1178 86.368L31.8538 87.152C31.4058 87.4827 30.9364 87.7333 30.4458 87.904C29.9658 88.064 29.4378 88.144 28.8618 88.144ZM25.9338 83.408H31.2938C31.2298 82.928 31.0698 82.5013 30.8138 82.128C30.5684 81.744 30.2591 81.4453 29.8858 81.232C29.5124 81.008 29.1018 80.896 28.6538 80.896C28.1951 80.896 27.7738 81.0027 27.3898 81.216C27.0058 81.4293 26.6858 81.728 26.4298 82.112C26.1738 82.4853 26.0084 82.9173 25.9338 83.408ZM34.133 88V79.984H35.317V81.12C35.5623 80.704 35.8717 80.384 36.245 80.16C36.629 79.9253 37.0663 79.808 37.557 79.808C37.8343 79.808 38.085 79.8453 38.309 79.92V81.008C38.1703 80.9547 38.0317 80.9173 37.893 80.896C37.7543 80.8747 37.6157 80.864 37.477 80.864C36.9863 80.864 36.5543 81.008 36.181 81.296C35.8183 81.5733 35.5303 81.9787 35.317 82.512V88H34.133ZM48.6058 88.176C47.7951 88.176 47.0378 88.032 46.3338 87.744C45.6298 87.4453 45.0111 87.0347 44.4778 86.512C43.9444 85.9787 43.5284 85.3653 43.2298 84.672C42.9418 83.968 42.7978 83.2107 42.7978 82.4C42.7978 81.5893 42.9418 80.8373 43.2298 80.144C43.5284 79.44 43.9444 78.8267 44.4778 78.304C45.0111 77.7707 45.6298 77.36 46.3338 77.072C47.0378 76.7733 47.7951 76.624 48.6058 76.624C49.1924 76.624 49.7524 76.6987 50.2858 76.848C50.8298 76.9867 51.3311 77.1947 51.7898 77.472C52.2591 77.7387 52.6751 78.0693 53.0378 78.464L52.2218 79.328C51.7844 78.8267 51.2458 78.4427 50.6058 78.176C49.9658 77.8987 49.2991 77.76 48.6058 77.76C47.9551 77.76 47.3524 77.8773 46.7977 78.112C46.2431 78.3467 45.7578 78.6773 45.3418 79.104C44.9364 79.52 44.6164 80.0107 44.3818 80.576C44.1578 81.1307 44.0458 81.7387 44.0458 82.4C44.0458 83.0507 44.1578 83.6587 44.3818 84.224C44.6164 84.7893 44.9418 85.2853 45.3578 85.712C45.7738 86.128 46.2591 86.4533 46.8138 86.688C47.3791 86.9227 47.9871 87.04 48.6378 87.04C49.3311 87.04 49.9924 86.9067 50.6218 86.64C51.2511 86.3627 51.7791 85.984 52.2058 85.504L53.0058 86.336C52.6324 86.72 52.2111 87.0507 51.7418 87.328C51.2831 87.6053 50.7871 87.8187 50.2538 87.968C49.7204 88.1067 49.1711 88.176 48.6058 88.176ZM58.1423 88.16C57.3849 88.16 56.6916 87.9787 56.0623 87.616C55.4436 87.2427 54.9529 86.7413 54.5903 86.112C54.2276 85.4827 54.0463 84.7787 54.0463 84C54.0463 83.2213 54.2276 82.5173 54.5903 81.888C54.9529 81.2587 55.4436 80.7627 56.0623 80.4C56.6916 80.0267 57.3849 79.84 58.1423 79.84C58.9103 79.84 59.6036 80.0267 60.2223 80.4C60.8409 80.7627 61.3316 81.2587 61.6943 81.888C62.0569 82.5173 62.2383 83.2213 62.2383 84C62.2383 84.7787 62.0569 85.4827 61.6943 86.112C61.3316 86.7413 60.8409 87.2427 60.2223 87.616C59.6036 87.9787 58.9103 88.16 58.1423 88.16ZM58.1423 87.104C58.6863 87.104 59.1769 86.9653 59.6143 86.688C60.0623 86.4107 60.4143 86.0373 60.6703 85.568C60.9369 85.0987 61.0703 84.576 61.0703 84C61.0703 83.4133 60.9369 82.8907 60.6703 82.432C60.4143 81.9627 60.0623 81.5893 59.6143 81.312C59.1769 81.0347 58.6863 80.896 58.1423 80.896C57.5983 80.896 57.1023 81.0347 56.6543 81.312C56.2169 81.5893 55.8649 81.9627 55.5983 82.432C55.3423 82.8907 55.2143 83.4133 55.2143 84C55.2143 84.576 55.3423 85.0987 55.5983 85.568C55.8649 86.0373 56.2169 86.4107 56.6543 86.688C57.1023 86.9653 57.5983 87.104 58.1423 87.104ZM63.883 88V79.984H65.067V80.928C65.6963 80.192 66.539 79.824 67.595 79.824C68.203 79.824 68.7363 79.9573 69.195 80.224C69.6643 80.48 70.027 80.8427 70.283 81.312C70.5497 81.7707 70.683 82.3093 70.683 82.928V88H69.515V83.168C69.515 82.4533 69.3123 81.8933 68.907 81.488C68.5123 81.072 67.9683 80.864 67.275 80.864C66.795 80.864 66.3683 80.9707 65.995 81.184C65.6217 81.3973 65.3123 81.7013 65.067 82.096V88H63.883ZM75.5819 88.16C74.8885 88.16 74.3552 87.9947 73.9819 87.664C73.6085 87.3333 73.4219 86.8533 73.4219 86.224V80.992H71.6939V79.984H73.4219V77.952L74.5899 77.648V79.984H77.0059V80.992H74.5899V85.92C74.5899 86.3467 74.6859 86.656 74.8779 86.848C75.0699 87.0293 75.3845 87.12 75.8219 87.12C76.0459 87.12 76.2432 87.104 76.4139 87.072C76.5952 87.04 76.7872 86.9867 76.9899 86.912V87.952C76.7872 88.0267 76.5579 88.08 76.3019 88.112C76.0565 88.144 75.8165 88.16 75.5819 88.16ZM80.8016 88.144C80.215 88.144 79.6976 88.0427 79.2496 87.84C78.8123 87.6373 78.4656 87.3547 78.2096 86.992C77.9643 86.6293 77.8416 86.208 77.8416 85.728C77.8416 84.9707 78.1296 84.3733 78.7056 83.936C79.2816 83.4987 80.0603 83.28 81.0416 83.28C81.9056 83.28 82.6896 83.4613 83.3936 83.824V82.768C83.3936 82.128 83.2123 81.648 82.8496 81.328C82.487 80.9973 81.959 80.832 81.2656 80.832C80.871 80.832 80.471 80.8907 80.0656 81.008C79.671 81.1147 79.2336 81.2907 78.7536 81.536L78.3056 80.624C78.8816 80.3467 79.415 80.144 79.9056 80.016C80.3963 79.888 80.887 79.824 81.3776 79.824C82.391 79.824 83.1696 80.064 83.7136 80.544C84.2683 81.024 84.5456 81.712 84.5456 82.608V88H83.3936V87.216C83.031 87.5253 82.631 87.76 82.1936 87.92C81.767 88.0693 81.303 88.144 80.8016 88.144ZM78.9776 85.696C78.9776 86.144 79.1643 86.512 79.5376 86.8C79.9216 87.0773 80.4123 87.216 81.0096 87.216C81.4896 87.216 81.927 87.1413 82.3216 86.992C82.7163 86.8427 83.0736 86.608 83.3936 86.288V84.784C83.063 84.56 82.711 84.4 82.3376 84.304C81.9643 84.1973 81.543 84.144 81.0736 84.144C80.4336 84.144 79.9216 84.288 79.5376 84.576C79.1643 84.8533 78.9776 85.2267 78.9776 85.696ZM90.2356 88.144C89.4783 88.144 88.7903 87.9627 88.1716 87.6C87.553 87.2267 87.0623 86.7253 86.6996 86.096C86.337 85.4667 86.1556 84.7627 86.1556 83.984C86.1556 83.2053 86.337 82.5067 86.6996 81.888C87.0623 81.2587 87.553 80.7573 88.1716 80.384C88.7903 80.0107 89.4783 79.824 90.2356 79.824C90.8223 79.824 91.3876 79.936 91.9316 80.16C92.4756 80.3733 92.9556 80.6827 93.3716 81.088L92.6196 81.952C92.2996 81.6107 91.9316 81.3547 91.5156 81.184C91.1103 81.0027 90.689 80.912 90.2516 80.912C89.7076 80.912 89.2116 81.0507 88.7636 81.328C88.3263 81.5947 87.9743 81.9627 87.7076 82.432C87.4516 82.8907 87.3236 83.408 87.3236 83.984C87.3236 84.56 87.4516 85.0827 87.7076 85.552C87.9743 86.0213 88.3316 86.3947 88.7796 86.672C89.2276 86.9387 89.7236 87.072 90.2676 87.072C90.705 87.072 91.1156 86.9867 91.4996 86.816C91.8943 86.6453 92.2623 86.3947 92.6036 86.064L93.3396 86.864C92.913 87.2693 92.433 87.584 91.8996 87.808C91.3663 88.032 90.8116 88.144 90.2356 88.144ZM98.035 88.16C97.3417 88.16 96.8083 87.9947 96.435 87.664C96.0617 87.3333 95.875 86.8533 95.875 86.224V80.992H94.147V79.984H95.875V77.952L97.043 77.648V79.984H99.459V80.992H97.043V85.92C97.043 86.3467 97.139 86.656 97.331 86.848C97.523 87.0293 97.8377 87.12 98.275 87.12C98.499 87.12 98.6963 87.104 98.867 87.072C99.0483 87.04 99.2403 86.9867 99.443 86.912V87.952C99.2403 88.0267 99.011 88.08 98.755 88.112C98.5097 88.144 98.2697 88.16 98.035 88.16ZM105.62 86.88H108.148C108.799 86.88 109.402 86.768 109.956 86.544C110.511 86.32 110.996 86.0053 111.412 85.6C111.828 85.1947 112.148 84.72 112.372 84.176C112.607 83.632 112.724 83.04 112.724 82.4C112.724 81.76 112.607 81.168 112.372 80.624C112.148 80.08 111.828 79.6053 111.412 79.2C110.996 78.7947 110.511 78.48 109.956 78.256C109.402 78.032 108.799 77.92 108.148 77.92H105.62V86.88ZM104.388 88V76.8H108.084C108.938 76.8 109.722 76.9387 110.436 77.216C111.151 77.4933 111.77 77.8827 112.292 78.384C112.826 78.8853 113.236 79.4773 113.524 80.16C113.823 80.8427 113.972 81.5893 113.972 82.4C113.972 83.2107 113.828 83.9573 113.54 84.64C113.252 85.3227 112.842 85.9147 112.308 86.416C111.786 86.9173 111.162 87.3067 110.436 87.584C109.722 87.8613 108.938 88 108.084 88H104.388ZM119.44 88.144C118.672 88.144 117.973 87.9627 117.344 87.6C116.725 87.2267 116.229 86.7253 115.856 86.096C115.493 85.4667 115.312 84.7627 115.312 83.984C115.312 83.216 115.488 82.5227 115.84 81.904C116.192 81.2747 116.667 80.7787 117.264 80.416C117.861 80.0427 118.528 79.856 119.264 79.856C119.979 79.856 120.619 80.0427 121.184 80.416C121.76 80.7787 122.213 81.2747 122.544 81.904C122.885 82.5227 123.056 83.216 123.056 83.984V84.352H116.48C116.544 84.8747 116.709 85.344 116.976 85.76C117.253 86.176 117.611 86.5067 118.048 86.752C118.485 86.9867 118.965 87.104 119.488 87.104C119.904 87.104 120.309 87.04 120.704 86.912C121.099 86.784 121.429 86.6027 121.696 86.368L122.432 87.152C121.984 87.4827 121.515 87.7333 121.024 87.904C120.544 88.064 120.016 88.144 119.44 88.144ZM116.512 83.408H121.872C121.808 82.928 121.648 82.5013 121.392 82.128C121.147 81.744 120.837 81.4453 120.464 81.232C120.091 81.008 119.68 80.896 119.232 80.896C118.773 80.896 118.352 81.0027 117.968 81.216C117.584 81.4293 117.264 81.728 117.008 82.112C116.752 82.4853 116.587 82.9173 116.512 83.408ZM127.629 88.16C126.935 88.16 126.402 87.9947 126.029 87.664C125.655 87.3333 125.469 86.8533 125.469 86.224V80.992H123.741V79.984H125.469V77.952L126.637 77.648V79.984H129.053V80.992H126.637V85.92C126.637 86.3467 126.733 86.656 126.925 86.848C127.117 87.0293 127.431 87.12 127.869 87.12C128.093 87.12 128.29 87.104 128.461 87.072C128.642 87.04 128.834 86.9867 129.037 86.912V87.952C128.834 88.0267 128.605 88.08 128.349 88.112C128.103 88.144 127.863 88.16 127.629 88.16ZM132.849 88.144C132.262 88.144 131.745 88.0427 131.297 87.84C130.859 87.6373 130.513 87.3547 130.257 86.992C130.011 86.6293 129.889 86.208 129.889 85.728C129.889 84.9707 130.177 84.3733 130.753 83.936C131.329 83.4987 132.107 83.28 133.089 83.28C133.953 83.28 134.737 83.4613 135.441 83.824V82.768C135.441 82.128 135.259 81.648 134.897 81.328C134.534 80.9973 134.006 80.832 133.312 80.832C132.918 80.832 132.518 80.8907 132.113 81.008C131.718 81.1147 131.281 81.2907 130.801 81.536L130.353 80.624C130.929 80.3467 131.462 80.144 131.953 80.016C132.443 79.888 132.934 79.824 133.424 79.824C134.438 79.824 135.217 80.064 135.761 80.544C136.315 81.024 136.593 81.712 136.593 82.608V88H135.441V87.216C135.078 87.5253 134.678 87.76 134.241 87.92C133.814 88.0693 133.35 88.144 132.849 88.144ZM131.025 85.696C131.025 86.144 131.211 86.512 131.585 86.8C131.969 87.0773 132.459 87.216 133.057 87.216C133.537 87.216 133.974 87.1413 134.369 86.992C134.763 86.8427 135.121 86.608 135.441 86.288V84.784C135.11 84.56 134.758 84.4 134.385 84.304C134.011 84.1973 133.59 84.144 133.121 84.144C132.481 84.144 131.969 84.288 131.585 84.576C131.211 84.8533 131.025 85.2267 131.025 85.696ZM138.571 88V79.984H139.755V88H138.571ZM139.163 78.448C138.949 78.448 138.763 78.368 138.603 78.208C138.443 78.048 138.363 77.8613 138.363 77.648C138.363 77.424 138.443 77.2373 138.603 77.088C138.763 76.928 138.949 76.848 139.163 76.848C139.387 76.848 139.573 76.928 139.723 77.088C139.883 77.2373 139.963 77.424 139.963 77.648C139.963 77.8613 139.883 78.048 139.723 78.208C139.573 78.368 139.387 78.448 139.163 78.448ZM141.774 88V76.8L142.958 76.528V88H141.774ZM147.537 88.16C146.875 88.16 146.251 88.0533 145.665 87.84C145.089 87.616 144.587 87.3067 144.161 86.912L144.881 86.144C145.254 86.4853 145.665 86.752 146.113 86.944C146.561 87.1253 147.019 87.216 147.489 87.216C148.129 87.216 148.651 87.0827 149.057 86.816C149.462 86.5493 149.665 86.2027 149.665 85.776C149.665 85.424 149.542 85.152 149.297 84.96C149.062 84.7573 148.689 84.6187 148.177 84.544L146.785 84.352C145.985 84.2347 145.387 83.9947 144.993 83.632C144.609 83.2693 144.417 82.7787 144.417 82.16C144.417 81.712 144.545 81.312 144.801 80.96C145.057 80.608 145.409 80.3307 145.857 80.128C146.315 79.9253 146.838 79.824 147.425 79.824C148.011 79.824 148.561 79.9093 149.073 80.08C149.585 80.2507 150.086 80.5173 150.577 80.88L149.953 81.68C149.505 81.3707 149.067 81.1467 148.641 81.008C148.225 80.8587 147.798 80.784 147.361 80.784C146.806 80.784 146.358 80.9067 146.017 81.152C145.675 81.3973 145.505 81.7173 145.505 82.112C145.505 82.4747 145.622 82.752 145.857 82.944C146.091 83.1253 146.47 83.2533 146.993 83.328L148.385 83.52C149.185 83.6267 149.782 83.8613 150.177 84.224C150.582 84.5867 150.785 85.0827 150.785 85.712C150.785 86.1707 150.641 86.5867 150.353 86.96C150.065 87.3333 149.675 87.6267 149.185 87.84C148.705 88.0533 148.155 88.16 147.537 88.16Z" fill="#969696"/>
<circle cx="75.5" cy="35.5" r="30.5" fill="#464646" stroke="#282828" stroke-width="10"/>
<path d="M75.38 43.242C74.28 43.242 73.246 43.0513 72.278 42.67C71.3247 42.274 70.496 41.7093 69.792 40.976L71.222 39.612C71.838 40.2573 72.4613 40.7193 73.092 40.998C73.7373 41.262 74.4927 41.394 75.358 41.394C76.0473 41.394 76.656 41.2767 77.184 41.042C77.7267 40.8073 78.1447 40.4847 78.438 40.074C78.7313 39.6633 78.878 39.1867 78.878 38.644C78.878 38.1453 78.746 37.7053 78.482 37.324C78.2327 36.928 77.888 36.6273 77.448 36.422C77.0227 36.202 76.5167 36.092 75.93 36.092H74.06V34.31H75.776C76.5533 34.31 77.1767 34.0827 77.646 33.628C78.1153 33.1733 78.35 32.5793 78.35 31.846C78.35 31.362 78.218 30.922 77.954 30.526C77.69 30.13 77.3233 29.822 76.854 29.602C76.3993 29.3673 75.8787 29.25 75.292 29.25C74.5147 29.25 73.8253 29.3893 73.224 29.668C72.6373 29.932 72.0287 30.4013 71.398 31.076L69.968 29.712C70.672 28.9493 71.486 28.37 72.41 27.974C73.334 27.5633 74.3093 27.358 75.336 27.358C76.3333 27.358 77.2133 27.5413 77.976 27.908C78.7533 28.2747 79.362 28.788 79.802 29.448C80.2567 30.0933 80.484 30.8267 80.484 31.648C80.484 32.4547 80.2127 33.1807 79.67 33.826C79.142 34.4567 78.4453 34.8967 77.58 35.146C78.6213 35.366 79.45 35.806 80.066 36.466C80.682 37.1113 80.99 37.874 80.99 38.754C80.99 39.6193 80.748 40.3893 80.264 41.064C79.7947 41.7387 79.1347 42.274 78.284 42.67C77.4333 43.0513 76.4653 43.242 75.38 43.242Z" fill="white"/>
</svg>
