<svg width="1913" height="707" viewBox="0 0 1913 707" fill="none" xmlns="http://www.w3.org/2000/svg">
<path fill-rule="evenodd" clip-rule="evenodd" d="M584.202 25.1366C473.048 -21.6781 365.948 0.825888 306.28 60.2431C289.429 77.0233 276.365 96.7456 268.066 118.675C248.649 140.812 237.273 167.704 236.772 197.471C236.165 233.516 251.505 273.708 287.689 314.72C313.694 344.194 356.939 371.519 412.997 395.366C445.211 412.97 482.531 428.985 524.01 443.172C571.063 459.266 623.483 473.012 679.899 484.056C674.08 493.579 667.496 502.823 660.111 511.726C620.335 559.68 557.314 597.768 465.597 616.129C171.975 674.91 29.1421 557.33 -5.54984 491.41L-6.43478 491.876C28.5143 558.284 171.854 675.954 465.793 617.11C557.688 598.713 620.93 560.529 660.881 512.364C668.379 503.325 675.055 493.935 680.946 484.26C704.122 488.78 727.971 492.844 752.396 496.427C743.433 517.903 731.957 538.494 717.761 557.777C674.529 616.505 606.046 663.133 506.398 685.61C187.395 757.565 32.1813 613.644 -5.53929 532.886L-6.44533 533.309C31.5008 614.55 187.221 758.63 506.618 686.585C606.47 664.062 675.174 617.315 718.567 558.37C732.864 538.949 744.411 518.207 753.417 496.577C791.745 502.176 831.489 506.593 872.282 509.735C1134.15 529.902 1439.36 497.499 1691.21 387.458C1791.88 343.47 1868.14 323.103 1925.11 319.155C1982.09 315.206 2019.72 327.675 2043.22 349.292C2066.72 370.91 2076.18 401.758 2076.64 434.761C2077.09 467.764 2068.53 502.868 2056.05 532.906L2056.97 533.289C2069.49 503.16 2078.09 467.919 2077.64 434.747C2077.18 401.575 2067.67 370.421 2043.9 348.556C2020.12 326.69 1982.18 314.197 1925.05 318.157C1867.91 322.117 1791.53 342.53 1690.81 386.542C1439.15 496.501 1134.11 528.896 872.359 508.738C831.675 505.604 792.038 501.202 753.812 495.624C756.279 489.644 758.552 483.598 760.635 477.493C777.212 479.311 794.007 480.92 810.989 482.31C1055.81 502.351 1339.49 476.926 1567.11 376.927C1736.67 302.44 1851.01 262.376 1917.2 253.201C1933.74 250.908 1947.24 250.549 1957.84 252.053C1968.44 253.557 1976.07 256.917 1980.93 262.018C1985.78 267.107 1987.94 273.995 1987.44 282.698C1986.95 291.412 1983.79 301.919 1978.05 314.177L1978.96 314.601C1984.73 302.286 1987.94 291.648 1988.44 282.755C1988.95 273.849 1986.74 266.665 1981.66 261.328C1976.58 256.004 1968.7 252.584 1957.98 251.063C1947.26 249.541 1933.65 249.911 1917.06 252.211C1850.72 261.407 1736.25 301.529 1566.71 376.011C1339.28 475.923 1055.79 501.346 811.071 481.313C794.173 479.93 777.461 478.33 760.965 476.523C773.892 438.249 779.417 397.714 778.633 357.15C775.88 214.825 695.433 71.984 584.202 25.1366ZM759.947 476.411C772.884 438.197 778.417 397.705 777.633 357.17C774.885 215.12 694.582 72.7107 583.814 26.0582C472.967 -20.6272 366.318 1.86884 306.986 60.9517C290.868 77.0015 278.239 95.7531 269.96 116.558C273.526 112.652 277.347 108.9 281.406 105.313C336.334 56.7677 434.903 38.3924 537.198 76.6298C639.579 114.899 713.654 231.604 716.189 347.92C717.082 388.91 709.092 429.865 690.319 467.332C713.018 470.767 736.259 473.803 759.947 476.411ZM267.08 121.354C248.864 142.939 238.253 168.882 237.772 197.488C237.17 233.223 252.375 273.182 288.439 314.059C312.889 341.771 352.722 367.629 404.265 390.483C365.128 368.088 334.126 343.239 313.114 316.406C273.809 266.21 257.162 217.039 257.82 172.965C258.092 154.792 261.305 137.493 267.08 121.354ZM413.433 394.464C370.272 370.873 336.343 344.449 313.901 315.789C274.707 265.735 258.166 216.781 258.82 172.98C259.104 153.981 262.623 135.944 268.938 119.198C272.973 114.608 277.359 110.224 282.068 106.062C336.663 57.812 434.822 39.4296 536.848 77.5665C638.788 115.671 712.662 231.97 715.189 347.942C716.082 388.891 708.077 429.787 689.279 467.175C614.108 455.752 544.893 439.955 485.005 420.818C459.341 412.618 435.396 403.806 413.433 394.464ZM422.649 399.386C452.642 415.036 486.768 429.378 524.334 442.226C571.44 458.338 623.94 472.097 680.453 483.145C683.44 478.206 686.222 473.193 688.804 468.114C613.712 456.688 544.558 440.898 484.7 421.771C462.71 414.744 441.97 407.266 422.649 399.386ZM681.498 483.349C704.624 487.853 728.42 491.903 752.792 495.475C755.259 489.508 757.532 483.474 759.617 477.381C735.879 474.764 712.591 471.718 689.846 468.272C687.265 473.366 684.484 478.394 681.498 483.349Z" fill="url(#paint0_linear_323_18)"/>
<defs>
<linearGradient id="paint0_linear_323_18" x1="1391.24" y1="1162.6" x2="930.44" y2="52.394" gradientUnits="userSpaceOnUse">
<stop stop-color="white"/>
<stop offset="1" stop-color="white" stop-opacity="0"/>
</linearGradient>
</defs>
</svg>
