<svg width="30" height="24" viewBox="0 0 30 24" fill="none" xmlns="http://www.w3.org/2000/svg">
<path id="Union" fill-rule="evenodd" clip-rule="evenodd" d="M3.00769 0C1.35084 0 0.00769043 1.32905 0.00769043 2.96851V20.5137C0.00769043 22.1531 1.35083 23.4822 3.00769 23.4822H26.9479C28.6047 23.4822 29.9479 22.1531 29.9479 20.5137V2.96851C29.9479 1.32905 28.6047 0 26.9479 0H3.00769ZM2.00769 2.96851C2.00769 2.42203 2.4554 1.97901 3.00769 1.97901H26.9479C27.5001 1.97901 27.9479 2.42203 27.9479 2.96851V3.23612C27.6052 3.01164 27.1432 3.01184 26.7956 3.26978L16.1778 11.1497C15.4667 11.6774 14.4889 11.6774 13.7778 11.1497L3.15992 3.26985C2.81236 3.01191 2.35033 3.01171 2.00769 3.23619V2.96851ZM2.00769 4.88851V20.5137C2.00769 21.0602 2.45541 21.5032 3.00769 21.5032H26.9479C27.5001 21.5032 27.9479 21.0602 27.9479 20.5137V4.88843L17.3778 12.7329C15.9556 13.7883 14 13.7883 12.5778 12.7329L2.00769 4.88851Z" fill="black"/>
</svg>
