<svg width="28" height="28" viewBox="0 0 28 28" fill="none" xmlns="http://www.w3.org/2000/svg">
<path id="Vector 176" d="M14.8251 23.7634C17.6436 25.2232 20.9887 26.2542 24.9422 26.6399C25.5179 26.6961 26.0077 26.2369 26.0077 25.6585V21.0706C26.0077 20.6143 25.6988 20.2159 25.2568 20.1022L20.3196 18.832C19.9721 18.7426 19.6034 18.8462 19.3533 19.1035L14.8251 23.7634ZM14.8251 23.7634C9.95689 21.242 6.65933 17.4412 4.50951 13.4758M4.50951 13.4758C2.32123 9.43938 1.32212 5.23241 1.06616 2.03055C1.02114 1.46737 1.47563 1 2.04061 1H6.43333C6.91206 1 7.32363 1.33929 7.41496 1.80922L8.7205 8.52679C8.78296 8.84814 8.68417 9.1797 8.45604 9.41447L4.50951 13.4758Z" stroke="black" stroke-width="2"/>
</svg>
